<svg xmlns="http://www.w3.org/2000/svg" width="375" viewBox="0 0 375 375" height="375" version="1.0"><path fill="#FFF" d="M 187.597656 132.472656 C 157.152344 132.472656 132.472656 157.152344 132.472656 187.597656 C 132.472656 218.042969 157.152344 242.722656 187.597656 242.722656 C 218.042969 242.722656 242.722656 218.042969 242.722656 187.597656 C 242.722656 157.152344 218.042969 132.472656 187.597656 132.472656"/><g fill="#FF1616"><g><g><path d="M 15.046875 0.34375 C 11.117188 0.34375 7.898438 -0.914062 5.390625 -3.4375 C 2.890625 -5.96875 1.640625 -9.320312 1.640625 -13.5 C 1.640625 -17.675781 2.882812 -21 5.375 -23.46875 C 7.863281 -25.945312 11.082031 -27.1875 15.03125 -27.1875 C 18.988281 -27.1875 22.269531 -25.960938 24.875 -23.515625 C 27.476562 -21.078125 28.78125 -17.691406 28.78125 -13.359375 C 28.78125 -12.421875 28.710938 -11.550781 28.578125 -10.75 L 10.078125 -10.75 C 10.234375 -9.5625 10.757812 -8.585938 11.65625 -7.828125 C 12.5625 -7.078125 13.535156 -6.703125 14.578125 -6.703125 C 15.617188 -6.703125 16.394531 -6.804688 16.90625 -7.015625 C 17.425781 -7.222656 17.804688 -7.429688 18.046875 -7.640625 C 18.285156 -7.847656 18.597656 -8.191406 18.984375 -8.671875 L 27.90625 -8.671875 C 27.132812 -5.972656 25.59375 -3.796875 23.28125 -2.140625 C 20.96875 -0.484375 18.222656 0.34375 15.046875 0.34375 Z M 20.203125 -15.90625 C 20.066406 -17.15625 19.515625 -18.175781 18.546875 -18.96875 C 17.585938 -19.757812 16.445312 -20.15625 15.125 -20.15625 C 13.8125 -20.15625 12.703125 -19.757812 11.796875 -18.96875 C 10.898438 -18.175781 10.34375 -17.15625 10.125 -15.90625 Z M 20.203125 -15.90625" transform="translate(162.021 201.057)"/></g></g></g><g fill="#FF1616"><g><g><path d="M 15.375 -4.5 C 15.375 -3.238281 14.941406 -2.171875 14.078125 -1.296875 C 13.210938 -0.429688 12.144531 0 10.875 0 C 9.601562 0 8.53125 -0.429688 7.65625 -1.296875 C 6.789062 -2.171875 6.359375 -3.238281 6.359375 -4.5 C 6.359375 -5.769531 6.789062 -6.835938 7.65625 -7.703125 C 8.53125 -8.578125 9.601562 -9.015625 10.875 -9.015625 C 12.144531 -9.015625 13.210938 -8.578125 14.078125 -7.703125 C 14.941406 -6.835938 15.375 -5.769531 15.375 -4.5 Z M 7.1875 -12.140625 L 6.21875 -36.25 L 15.140625 -36.25 L 14.171875 -12.140625 Z M 7.1875 -12.140625" transform="translate(192.483 201.057)"/></g></g></g></svg>